<svg id="Layer_1" data-name="Layer 1" xmlns="http://www.w3.org/2000/svg" width="258" height="205" viewBox="0 0 258 205"><defs><style>.cls-1,.cls-6,.cls-7{fill:none;stroke-miterlimit:10;}.cls-1{stroke:#494948;stroke-width:5px;}.cls-2{fill:#3a2536;}.cls-3{fill:#603451;}.cls-4{fill:#f3c027;}.cls-5{fill:#ffea03;}.cls-6,.cls-7{stroke:#000;}.cls-6{stroke-linecap:round;}.cls-8{fill:#020202;}.cls-9{fill:#fff;opacity:0.53;}</style></defs><title>hund</title><path class="cls-1" d="M260.5,6.5s-55.92,16-76,35c-19,18-8.91,36.07-21,53-15,21-56,5-68,38.5-4.38,12.24-13,26-13,26"/><path class="cls-2" d="M78,169.5c5.5-1.64,41.25-11.21,55-10,16.93,1.49,4.1,17.76,4.1,17.76a8.7,8.7,0,0,0,1.2,9.15c3.63,4.33-5.3,7.09-5.3,7.09a4.59,4.59,0,0,1,.23-6.54s-2.55-5.24-1.29-8.14c0,0-28.59,5.51-40.28,1.46,0,0-4,5.34-1,11,3.46,6.33-6.69,5.26-6.69,5.26a5.8,5.8,0,0,1,1.71-5.7,16.07,16.07,0,0,1,.06-12s-12.64-6.19-13.45-10.36C72.06,167.08,76.73,169.88,78,169.5Z"/><path class="cls-3" d="M76.69,168.5c5.33-2.12,43.51-12,57.31-12,17,0,8,20,8,20a8.68,8.68,0,0,0,2,9c4,4-3,7-3,7a5.57,5.57,0,0,1-2-6s-3-5-2-8c0,0-28,8-40,5,0,0-3.55,5.67,0,11,4,6-5,7-5,7a13.6,13.6,0,0,1,0-7,16.08,16.08,0,0,1-1-12s-17-6-19-7C70.8,174.9,75.46,169,76.69,168.5Z"/><path class="cls-4" d="M63,139.45s-8.88-10.9-15.53-5.27-12.92,26.66-8.12,35.32L50.8,157.86S50.24,142.64,63,139.45Z"/><path class="cls-3" d="M68.9,140.21a19.75,19.75,0,0,0-10.3-1.34A15,15,0,0,0,51.5,142c-5,4-4.5,19.5-4.5,19.5L24.5,180S45,219.5,78,171.5c0,0-5.86-.45-4-17C73.86,152,73.5,148,68.9,140.21Z"/><path class="cls-4" d="M67.5,143s5-13,13-6,5,30,4,32-6,6-11,0S73.5,154,67.5,143Z"/><path class="cls-5" d="M57.24,156.67c-3.41,1.54-1.71,6.17-1.71,6.17s3.42,4.62,5.12-1.55S57.24,156.67,57.24,156.67Z"/><path class="cls-5" d="M51.46,154.84c2.54,0,2.54,5.09,2.54,5.09s-1.27,5.08-3.81,1.27S51.46,154.84,51.46,154.84Z"/><path d="M56.29,158.63c-2.46,1.17-1.23,4.69-1.23,4.69s2.46,3.51,3.69-1.18S56.29,158.63,56.29,158.63Z"/><path d="M51,156.5c2,0,2,4,2,4s-1,4-3,1S51,156.5,51,156.5Z"/><path d="M37,182.5c-1,2-3.46,3-6.5,3a7.52,7.52,0,0,1-6.5-4c-1-2,3.39-5,8-5C34.5,176.5,38,180.5,37,182.5Z"/><path class="cls-6" d="M39,191.5a26.62,26.62,0,0,1-9-7"/><line class="cls-7" x1="29.5" y1="187" x2="30.67" y2="184.8"/><path class="cls-8" d="M85.33,165.88a1.15,1.15,0,0,1,1.84-.47s-.74,4.09-6,13.59c0,0-1.92,2-2.07-.74-.14.24,1,.4,1,.4s7.3-15.59,5-12.33C85,166.5,85.26,166,85.33,165.88Z"/><path class="cls-9" d="M85,171.5c-7,15-18,27-38,27-22.92,0-42-21.08-42-44s19.09-38.21,42-39C76,114.5,96.5,146.85,85,171.5Z"/><path class="cls-3" d="M132,135s14,9,8.16,23.5c-4,10,2.88,2,2.88,2S149,141,132,135Z"/></svg>
